<svg width="121" height="121" viewBox="0 0 121 121" fill="none" xmlns="http://www.w3.org/2000/svg">
<path d="M4.45427 117.055C3.00753 115.608 2.05269 113.93 1.58973 112.02C1.12678 110.052 1.12678 108.114 1.58973 106.204C2.05269 104.294 2.9786 102.645 4.36746 101.256L45.0786 60.5451L4.36746 19.9207C2.9786 18.5319 2.05269 16.8826 1.58973 14.9729C1.12678 13.0632 1.12678 11.1535 1.58973 9.24383C2.05269 7.27627 3.00753 5.56912 4.45427 4.12239C5.84313 2.73352 7.49241 1.80761 9.4021 1.34466C11.3697 0.823831 13.3083 0.823831 15.218 1.34466C17.1855 1.80761 18.8638 2.70459 20.2526 4.03558L60.877 44.7467L101.588 4.12239C102.977 2.73352 104.597 1.80761 106.449 1.34466C108.359 0.823831 110.269 0.823831 112.178 1.34466C114.146 1.80761 115.824 2.76246 117.213 4.20919C118.717 5.59806 119.701 7.27627 120.164 9.24383C120.627 11.1535 120.627 13.0632 120.164 14.9729C119.701 16.8826 118.746 18.5319 117.3 19.9207L76.7621 60.5451L117.3 101.256C118.746 102.645 119.701 104.294 120.164 106.204C120.627 108.114 120.627 110.052 120.164 112.02C119.701 113.93 118.717 115.579 117.213 116.968C115.824 118.415 114.146 119.398 112.178 119.919C110.269 120.382 108.359 120.382 106.449 119.919C104.597 119.456 102.977 118.501 101.588 117.055L60.877 76.4302L20.2526 117.141C18.8638 118.472 17.1855 119.398 15.218 119.919C13.3083 120.382 11.3697 120.382 9.4021 119.919C7.49241 119.398 5.84313 118.443 4.45427 117.055Z" fill="#7F7F7F" fill-opacity="0.5" style="mix-blend-mode:luminosity"/>
<path d="M4.45427 117.055C3.00753 115.608 2.05269 113.93 1.58973 112.02C1.12678 110.052 1.12678 108.114 1.58973 106.204C2.05269 104.294 2.9786 102.645 4.36746 101.256L45.0786 60.5451L4.36746 19.9207C2.9786 18.5319 2.05269 16.8826 1.58973 14.9729C1.12678 13.0632 1.12678 11.1535 1.58973 9.24383C2.05269 7.27627 3.00753 5.56912 4.45427 4.12239C5.84313 2.73352 7.49241 1.80761 9.4021 1.34466C11.3697 0.823831 13.3083 0.823831 15.218 1.34466C17.1855 1.80761 18.8638 2.70459 20.2526 4.03558L60.877 44.7467L101.588 4.12239C102.977 2.73352 104.597 1.80761 106.449 1.34466C108.359 0.823831 110.269 0.823831 112.178 1.34466C114.146 1.80761 115.824 2.76246 117.213 4.20919C118.717 5.59806 119.701 7.27627 120.164 9.24383C120.627 11.1535 120.627 13.0632 120.164 14.9729C119.701 16.8826 118.746 18.5319 117.3 19.9207L76.7621 60.5451L117.3 101.256C118.746 102.645 119.701 104.294 120.164 106.204C120.627 108.114 120.627 110.052 120.164 112.02C119.701 113.93 118.717 115.579 117.213 116.968C115.824 118.415 114.146 119.398 112.178 119.919C110.269 120.382 108.359 120.382 106.449 119.919C104.597 119.456 102.977 118.501 101.588 117.055L60.877 76.4302L20.2526 117.141C18.8638 118.472 17.1855 119.398 15.218 119.919C13.3083 120.382 11.3697 120.382 9.4021 119.919C7.49241 119.398 5.84313 118.443 4.45427 117.055Z" fill="white" style="mix-blend-mode:overlay"/>
</svg>
