<svg width="124" height="139" viewBox="0 0 124 139" fill="none" xmlns="http://www.w3.org/2000/svg">
<path d="M0.547051 100.917C0.547051 98.4593 2.55821 96.4482 4.94181 96.4482H16.4129L21.627 80.0609H4.94181C2.55821 80.0609 0.547051 78.0498 0.547051 75.6661C0.547051 73.2081 2.55821 71.2714 4.94181 71.2714H24.4575L42.2601 15.5547C45.314 5.34994 51.6455 0.582735 62.1482 0.582735C72.651 0.582735 78.8334 5.34994 81.9619 15.5547L99.6899 71.2714H119.131C121.589 71.2714 123.6 73.2081 123.6 75.6661C123.6 78.0498 121.589 80.0609 119.131 80.0609H102.52L107.735 96.4482H119.131C121.589 96.4482 123.6 98.4593 123.6 100.917C123.6 103.301 121.589 105.312 119.131 105.312H110.565L115.63 121.178C116.226 123.264 116.673 125.2 116.673 127.137C116.673 134.437 111.533 138.31 104.383 138.31C97.7533 138.31 93.9544 135.182 92.2412 128.85L85.3883 105.312H38.7591L31.9063 128.776C30.1931 135.033 26.6177 138.31 19.9883 138.31C12.9865 138.31 7.54888 134.586 7.54888 127.137C7.54888 124.902 7.84683 123.338 8.51721 121.178L13.5824 105.312H4.94181C2.55821 105.312 0.547051 103.301 0.547051 100.917ZM61.6268 26.7279L48.666 71.2714H75.4815L62.5207 26.7279H61.6268ZM41.2917 96.4482H82.8558L78.0141 80.0609H46.1334L41.2917 96.4482Z" fill="white"/>
</svg>
