<svg width="157" height="92" viewBox="0 0 157 92" fill="none" xmlns="http://www.w3.org/2000/svg">
<path d="M78.5 91.9381C74.9411 91.9381 71.9899 90.5493 69.1254 87.7716L3.85049 20.9343C1.68045 18.6774 0.465221 15.9866 0.465221 12.7749C0.465221 6.26478 5.67333 0.969871 12.0967 0.969871C15.3951 0.969871 18.3464 2.3587 20.69 4.70235L78.5868 64.0747L136.31 4.70235C138.654 2.3587 141.692 0.969871 144.817 0.969871C151.327 0.969871 156.535 6.26478 156.535 12.7749C156.535 15.9866 155.406 18.6774 153.15 20.9343L87.8746 87.6848C85.0969 90.5493 82.0589 91.9381 78.5 91.9381Z" fill="#EBEBF5"/>
</svg>
