<svg width="178" height="166" viewBox="0 0 178 166" fill="none" xmlns="http://www.w3.org/2000/svg">
<path d="M89.123 165.309C87.9078 165.309 86.4321 164.875 84.696 164.007C82.96 163.196 81.3107 162.271 79.7482 161.229C63.6605 150.812 49.6561 139.875 37.735 128.417C25.8718 116.901 16.6705 105.067 10.1313 92.914C3.59204 80.7036 0.322418 68.4063 0.322418 56.0223C0.322418 47.8048 1.62448 40.3107 4.2286 33.54C6.8906 26.7693 10.5364 20.9244 15.1659 16.0055C19.8533 11.0866 25.2352 7.32513 31.3115 4.72101C37.4457 2.05902 44.0428 0.72802 51.1028 0.72802C59.8411 0.72802 67.3931 2.92706 73.7587 7.32513C80.1822 11.7232 85.3037 17.4523 89.123 24.5124C93.0003 17.3944 98.1217 11.6653 104.487 7.32513C110.911 2.92706 118.492 0.72802 127.23 0.72802C134.174 0.72802 140.714 2.05902 146.848 4.72101C153.04 7.32513 158.451 11.0866 163.08 16.0055C167.71 20.9244 171.327 26.7693 173.931 33.54C176.593 40.3107 177.924 47.8048 177.924 56.0223C177.924 68.4063 174.654 80.7036 168.115 92.914C161.576 105.067 152.345 116.901 140.424 128.417C128.561 139.875 114.615 150.812 98.5847 161.229C96.9644 162.271 95.2861 163.196 93.5501 164.007C91.8718 164.875 90.3962 165.309 89.123 165.309Z" fill="#7F7F7F" fill-opacity="0.5" style="mix-blend-mode:luminosity"/>
<path d="M89.123 165.309C87.9078 165.309 86.4321 164.875 84.696 164.007C82.96 163.196 81.3107 162.271 79.7482 161.229C63.6605 150.812 49.6561 139.875 37.735 128.417C25.8718 116.901 16.6705 105.067 10.1313 92.914C3.59204 80.7036 0.322418 68.4063 0.322418 56.0223C0.322418 47.8048 1.62448 40.3107 4.2286 33.54C6.8906 26.7693 10.5364 20.9244 15.1659 16.0055C19.8533 11.0866 25.2352 7.32513 31.3115 4.72101C37.4457 2.05902 44.0428 0.72802 51.1028 0.72802C59.8411 0.72802 67.3931 2.92706 73.7587 7.32513C80.1822 11.7232 85.3037 17.4523 89.123 24.5124C93.0003 17.3944 98.1217 11.6653 104.487 7.32513C110.911 2.92706 118.492 0.72802 127.23 0.72802C134.174 0.72802 140.714 2.05902 146.848 4.72101C153.04 7.32513 158.451 11.0866 163.08 16.0055C167.71 20.9244 171.327 26.7693 173.931 33.54C176.593 40.3107 177.924 47.8048 177.924 56.0223C177.924 68.4063 174.654 80.7036 168.115 92.914C161.576 105.067 152.345 116.901 140.424 128.417C128.561 139.875 114.615 150.812 98.5847 161.229C96.9644 162.271 95.2861 163.196 93.5501 164.007C91.8718 164.875 90.3962 165.309 89.123 165.309Z" fill="white" style="mix-blend-mode:overlay"/>
</svg>
