<svg width="178" height="166" viewBox="0 0 178 166" fill="none" xmlns="http://www.w3.org/2000/svg">
<path d="M0.127105 55.7859C0.127105 47.5685 1.42917 40.0744 4.03329 33.3037C6.69528 26.5329 10.37 20.6881 15.0574 15.7692C19.8027 10.8503 25.2714 7.08881 31.4634 4.48468C37.6554 1.82269 44.3393 0.491692 51.5152 0.491692C59.9062 0.491692 67.2846 2.22777 73.6502 5.69994C80.0158 9.11424 85.1084 13.6281 88.9277 19.2414C92.805 13.6281 97.8975 9.11424 104.205 5.69994C110.571 2.22777 117.949 0.491692 126.34 0.491692C133.516 0.491692 140.2 1.82269 146.392 4.48468C152.642 7.08881 158.111 10.8503 162.798 15.7692C167.485 20.6881 171.131 26.5329 173.735 33.3037C176.397 40.0744 177.728 47.5685 177.728 55.7859C177.728 68.17 174.459 80.4672 167.92 92.6777C161.38 104.83 152.15 116.665 140.229 128.181C128.366 139.639 114.419 150.576 98.3894 160.993C96.769 162.034 95.0908 162.96 93.3547 163.77C91.6765 164.638 90.2009 165.072 88.9277 165.072C87.7125 165.072 86.2368 164.638 84.5007 163.77C82.7646 162.96 81.1154 162.034 79.5529 160.993C63.4652 150.576 49.4608 139.639 37.5397 128.181C25.6765 116.665 16.4752 104.83 9.93597 92.6777C3.39673 80.4672 0.127105 68.17 0.127105 55.7859ZM20.2657 55.6991C20.2657 63.0485 22.0017 70.6005 25.4739 78.355C29.0039 86.0516 33.865 93.6904 40.057 101.271C46.249 108.794 53.3959 116.086 61.4976 123.146C69.5993 130.206 78.2508 136.774 87.4521 142.85C88.2044 143.429 88.6963 143.719 88.9277 143.719C89.1592 143.719 89.68 143.429 90.4902 142.85C99.6336 136.774 108.256 130.206 116.358 123.146C124.46 116.086 131.606 108.794 137.798 101.271C143.99 93.6904 148.823 86.0516 152.295 78.355C155.825 70.6005 157.59 63.0485 157.59 55.6991C157.59 48.5812 156.143 42.3602 153.25 37.0362C150.414 31.7122 146.508 27.5746 141.531 24.6232C136.554 21.614 130.912 20.1094 124.604 20.1094C119.512 20.1094 115.172 20.9775 111.584 22.7136C107.996 24.3918 104.9 26.5619 102.296 29.2239C99.6914 31.828 97.4345 34.461 95.5249 37.123C94.2517 38.8013 93.1233 40.0165 92.1395 40.7688C91.2136 41.5211 90.143 41.8973 88.9277 41.8973C87.7125 41.8973 86.613 41.55 85.6292 40.8556C84.6454 40.1033 83.5169 38.8591 82.2438 37.123C80.4499 34.461 78.2508 31.828 75.6467 29.2239C73.1004 26.6197 70.0044 24.4496 66.3587 22.7136C62.7129 20.9775 58.3437 20.1094 53.2512 20.1094C46.9435 20.1094 41.3012 21.614 36.3244 24.6232C31.3477 27.5746 27.4125 31.7122 24.5191 37.0362C21.6835 42.3602 20.2657 48.5812 20.2657 55.6991Z" fill="#7F7F7F" fill-opacity="0.5" style="mix-blend-mode:luminosity"/>
<path d="M0.127105 55.7859C0.127105 47.5685 1.42917 40.0744 4.03329 33.3037C6.69528 26.5329 10.37 20.6881 15.0574 15.7692C19.8027 10.8503 25.2714 7.08881 31.4634 4.48468C37.6554 1.82269 44.3393 0.491692 51.5152 0.491692C59.9062 0.491692 67.2846 2.22777 73.6502 5.69994C80.0158 9.11424 85.1084 13.6281 88.9277 19.2414C92.805 13.6281 97.8975 9.11424 104.205 5.69994C110.571 2.22777 117.949 0.491692 126.34 0.491692C133.516 0.491692 140.2 1.82269 146.392 4.48468C152.642 7.08881 158.111 10.8503 162.798 15.7692C167.485 20.6881 171.131 26.5329 173.735 33.3037C176.397 40.0744 177.728 47.5685 177.728 55.7859C177.728 68.17 174.459 80.4672 167.92 92.6777C161.38 104.83 152.15 116.665 140.229 128.181C128.366 139.639 114.419 150.576 98.3894 160.993C96.769 162.034 95.0908 162.96 93.3547 163.77C91.6765 164.638 90.2009 165.072 88.9277 165.072C87.7125 165.072 86.2368 164.638 84.5007 163.77C82.7646 162.96 81.1154 162.034 79.5529 160.993C63.4652 150.576 49.4608 139.639 37.5397 128.181C25.6765 116.665 16.4752 104.83 9.93597 92.6777C3.39673 80.4672 0.127105 68.17 0.127105 55.7859ZM20.2657 55.6991C20.2657 63.0485 22.0017 70.6005 25.4739 78.355C29.0039 86.0516 33.865 93.6904 40.057 101.271C46.249 108.794 53.3959 116.086 61.4976 123.146C69.5993 130.206 78.2508 136.774 87.4521 142.85C88.2044 143.429 88.6963 143.719 88.9277 143.719C89.1592 143.719 89.68 143.429 90.4902 142.85C99.6336 136.774 108.256 130.206 116.358 123.146C124.46 116.086 131.606 108.794 137.798 101.271C143.99 93.6904 148.823 86.0516 152.295 78.355C155.825 70.6005 157.59 63.0485 157.59 55.6991C157.59 48.5812 156.143 42.3602 153.25 37.0362C150.414 31.7122 146.508 27.5746 141.531 24.6232C136.554 21.614 130.912 20.1094 124.604 20.1094C119.512 20.1094 115.172 20.9775 111.584 22.7136C107.996 24.3918 104.9 26.5619 102.296 29.2239C99.6914 31.828 97.4345 34.461 95.5249 37.123C94.2517 38.8013 93.1233 40.0165 92.1395 40.7688C91.2136 41.5211 90.143 41.8973 88.9277 41.8973C87.7125 41.8973 86.613 41.55 85.6292 40.8556C84.6454 40.1033 83.5169 38.8591 82.2438 37.123C80.4499 34.461 78.2508 31.828 75.6467 29.2239C73.1004 26.6197 70.0044 24.4496 66.3587 22.7136C62.7129 20.9775 58.3437 20.1094 53.2512 20.1094C46.9435 20.1094 41.3012 21.614 36.3244 24.6232C31.3477 27.5746 27.4125 31.7122 24.5191 37.0362C21.6835 42.3602 20.2657 48.5812 20.2657 55.6991Z" fill="white" style="mix-blend-mode:overlay"/>
</svg>
