<svg width="179" height="165" viewBox="0 0 179 165" fill="none" xmlns="http://www.w3.org/2000/svg">
<path d="M23.0075 152.461C8.32509 152.461 0.604736 144.878 0.604736 130.265V58.0242C0.604736 52.6475 1.29405 50.2349 3.5688 47.133L17.1484 29.0039V17.9749C17.1484 6.67006 23.6969 0.397275 35.4153 0.397275H91.5946C103.313 0.397275 109.793 6.67006 109.793 17.9749V29.0039L123.441 47.133C125.233 49.4767 125.854 51.2 125.992 54.5776H112.688C111.929 53.3368 111.102 52.8543 109.724 52.165L97.7295 36.2418C96.4198 34.5185 96.0752 33.2088 96.0752 31.003V20.1117C96.0752 16.1826 94.1451 14.1147 90.4228 14.1147H36.5871C32.8648 14.1147 30.9347 16.1826 30.9347 20.1117V31.003C30.9347 33.2088 30.59 34.5185 29.2803 36.2418L16.0454 53.8194C15.0804 55.1291 14.9425 55.9562 14.9425 58.1621V128.748C14.9425 134.952 18.1823 138.123 24.3173 138.123H94.9723L95.9373 149.014C96.0752 150.255 96.213 151.358 96.4888 152.461H23.0075ZM45.5482 33.5534C42.9288 33.5534 40.723 31.3476 40.723 28.7282C40.723 26.1088 42.9288 23.8341 45.5482 23.8341H81.4617C84.0121 23.8341 86.2179 26.1088 86.2179 28.7282C86.2179 31.3476 84.0811 33.5534 81.4617 33.5534H45.5482ZM123.234 164.593C112.757 164.593 107.518 159.285 106.415 147.98L99.3839 74.4989C98.8324 68.9154 102.003 65.1242 107.38 65.1242H133.85L134.194 61.4019C134.815 54.233 137.296 49.6835 142.949 45.6165L165.076 29.6243C172.038 24.5923 179 34.5185 172.452 39.2058L149.428 55.7495C147.223 57.3349 146.326 59.0582 146.12 62.229L145.913 65.1242H170.177C175.553 65.1242 178.793 68.9154 178.242 74.4989L171.142 147.98C170.039 159.285 164.8 164.593 154.391 164.593H123.234ZM123.924 150.6H153.633C155.977 150.6 157.08 149.566 157.355 147.084L163.835 79.1173H113.791L120.27 147.084C120.546 149.566 121.649 150.6 123.924 150.6Z" fill="white"/>
</svg>
