<svg width="148" height="23" viewBox="0 0 148 23" fill="none" xmlns="http://www.w3.org/2000/svg">
<path d="M11.9207 22.7428C10.011 22.7428 8.21708 22.2509 6.53887 21.2671C4.86065 20.2255 3.50072 18.8656 2.45907 17.1873C1.41742 15.4513 0.896598 13.5705 0.896598 11.5451C0.896598 9.51965 1.41742 7.66783 2.45907 5.98961C3.50072 4.3114 4.86065 2.9804 6.53887 1.99662C8.21708 0.954972 10.011 0.434147 11.9207 0.434147H136.485C138.452 0.434147 140.275 0.954972 141.953 1.99662C143.632 2.9804 144.963 4.3114 145.946 5.98961C146.988 7.66783 147.509 9.51965 147.509 11.5451C147.509 13.5705 146.988 15.4513 145.946 17.1873C144.963 18.8656 143.632 20.2255 141.953 21.2671C140.275 22.2509 138.452 22.7428 136.485 22.7428H11.9207Z" fill="#7F7F7F" fill-opacity="0.5" style="mix-blend-mode:luminosity"/>
<path d="M11.9207 22.7428C10.011 22.7428 8.21708 22.2509 6.53887 21.2671C4.86065 20.2255 3.50072 18.8656 2.45907 17.1873C1.41742 15.4513 0.896598 13.5705 0.896598 11.5451C0.896598 9.51965 1.41742 7.66783 2.45907 5.98961C3.50072 4.3114 4.86065 2.9804 6.53887 1.99662C8.21708 0.954972 10.011 0.434147 11.9207 0.434147H136.485C138.452 0.434147 140.275 0.954972 141.953 1.99662C143.632 2.9804 144.963 4.3114 145.946 5.98961C146.988 7.66783 147.509 9.51965 147.509 11.5451C147.509 13.5705 146.988 15.4513 145.946 17.1873C144.963 18.8656 143.632 20.2255 141.953 21.2671C140.275 22.2509 138.452 22.7428 136.485 22.7428H11.9207Z" fill="white" style="mix-blend-mode:overlay"/>
</svg>
