<svg width="30" height="30" viewBox="0 0 30 30" fill="none" xmlns="http://www.w3.org/2000/svg">
<rect width="30" height="30" rx="15" fill="white" fill-opacity="0.2" style="mix-blend-mode:overlay"/>
<rect x="0.5" y="0.5" width="29" height="29" rx="14.5" stroke="white" stroke-opacity="0.5" style="mix-blend-mode:overlay"/>
<path d="M8.89062 16.375C8.71875 16.375 8.55729 16.3307 8.40625 16.2422C8.25521 16.1484 8.13281 16.026 8.03906 15.875C7.94531 15.7188 7.89844 15.5495 7.89844 15.3672C7.89844 15.1849 7.94531 15.0182 8.03906 14.8672C8.13281 14.7161 8.25521 14.5964 8.40625 14.5078C8.55729 14.4141 8.71875 14.3672 8.89062 14.3672H20.1016C20.2786 14.3672 20.4427 14.4141 20.5938 14.5078C20.7448 14.5964 20.8646 14.7161 20.9531 14.8672C21.0469 15.0182 21.0938 15.1849 21.0938 15.3672C21.0938 15.5495 21.0469 15.7188 20.9531 15.875C20.8646 16.026 20.7448 16.1484 20.5938 16.2422C20.4427 16.3307 20.2786 16.375 20.1016 16.375H8.89062Z" fill="#7F7F7F" fill-opacity="0.5" style="mix-blend-mode:luminosity"/>
<path d="M8.89062 16.375C8.71875 16.375 8.55729 16.3307 8.40625 16.2422C8.25521 16.1484 8.13281 16.026 8.03906 15.875C7.94531 15.7188 7.89844 15.5495 7.89844 15.3672C7.89844 15.1849 7.94531 15.0182 8.03906 14.8672C8.13281 14.7161 8.25521 14.5964 8.40625 14.5078C8.55729 14.4141 8.71875 14.3672 8.89062 14.3672H20.1016C20.2786 14.3672 20.4427 14.4141 20.5938 14.5078C20.7448 14.5964 20.8646 14.7161 20.9531 14.8672C21.0469 15.0182 21.0938 15.1849 21.0938 15.3672C21.0938 15.5495 21.0469 15.7188 20.9531 15.875C20.8646 16.026 20.7448 16.1484 20.5938 16.2422C20.4427 16.3307 20.2786 16.375 20.1016 16.375H8.89062Z" fill="white" style="mix-blend-mode:overlay"/>
</svg>
