<svg width="148" height="148" viewBox="0 0 148 148" fill="none" xmlns="http://www.w3.org/2000/svg">
<path d="M0.563697 73.6184C0.563697 70.5513 1.66322 67.9183 3.86225 65.7193C6.06129 63.5202 8.69435 62.4207 11.7614 62.4207H62.8891V11.3799C62.8891 8.31278 63.9597 5.67972 66.1008 3.48069C68.242 1.28165 70.875 0.182129 74 0.182129C77.0671 0.182129 79.7001 1.28165 81.8992 3.48069C84.0982 5.67972 85.1977 8.31278 85.1977 11.3799V62.4207H136.325C139.335 62.4207 141.939 63.5202 144.138 65.7193C146.337 67.9183 147.436 70.5513 147.436 73.6184C147.436 76.7434 146.337 79.4054 144.138 81.6044C141.939 83.7456 139.335 84.8162 136.325 84.8162H85.1977V135.944C85.1977 138.953 84.0982 141.557 81.8992 143.756C79.7001 145.955 77.0671 147.055 74 147.055C70.875 147.055 68.242 145.955 66.1008 143.756C63.9597 141.557 62.8891 138.953 62.8891 135.944V84.8162H11.7614C8.69435 84.8162 6.06129 83.7456 3.86225 81.6044C1.66322 79.4054 0.563697 76.7434 0.563697 73.6184Z" fill="#7F7F7F" fill-opacity="0.5" style="mix-blend-mode:luminosity"/>
<path d="M0.563697 73.6184C0.563697 70.5513 1.66322 67.9183 3.86225 65.7193C6.06129 63.5202 8.69435 62.4207 11.7614 62.4207H62.8891V11.3799C62.8891 8.31278 63.9597 5.67972 66.1008 3.48069C68.242 1.28165 70.875 0.182129 74 0.182129C77.0671 0.182129 79.7001 1.28165 81.8992 3.48069C84.0982 5.67972 85.1977 8.31278 85.1977 11.3799V62.4207H136.325C139.335 62.4207 141.939 63.5202 144.138 65.7193C146.337 67.9183 147.436 70.5513 147.436 73.6184C147.436 76.7434 146.337 79.4054 144.138 81.6044C141.939 83.7456 139.335 84.8162 136.325 84.8162H85.1977V135.944C85.1977 138.953 84.0982 141.557 81.8992 143.756C79.7001 145.955 77.0671 147.055 74 147.055C70.875 147.055 68.242 145.955 66.1008 143.756C63.9597 141.557 62.8891 138.953 62.8891 135.944V84.8162H11.7614C8.69435 84.8162 6.06129 83.7456 3.86225 81.6044C1.66322 79.4054 0.563697 76.7434 0.563697 73.6184Z" fill="white" style="mix-blend-mode:overlay"/>
</svg>
