<svg width="30" height="30" viewBox="0 0 30 30" fill="none" xmlns="http://www.w3.org/2000/svg">
<rect width="30" height="30" rx="15" fill="white" fill-opacity="0.2" style="mix-blend-mode:overlay"/>
<rect x="0.5" y="0.5" width="29" height="29" rx="14.5" stroke="white" stroke-opacity="0.5" style="mix-blend-mode:overlay"/>
<path d="M8.39062 15.3594C8.39062 15.0833 8.48958 14.8464 8.6875 14.6484C8.88542 14.4505 9.1224 14.3516 9.39844 14.3516H14V9.75781C14 9.48177 14.0964 9.24479 14.2891 9.04688C14.4818 8.84896 14.7188 8.75 15 8.75C15.276 8.75 15.513 8.84896 15.7109 9.04688C15.9089 9.24479 16.0078 9.48177 16.0078 9.75781V14.3516H20.6094C20.8802 14.3516 21.1146 14.4505 21.3125 14.6484C21.5104 14.8464 21.6094 15.0833 21.6094 15.3594C21.6094 15.6406 21.5104 15.8802 21.3125 16.0781C21.1146 16.2708 20.8802 16.3672 20.6094 16.3672H16.0078V20.9688C16.0078 21.2396 15.9089 21.474 15.7109 21.6719C15.513 21.8698 15.276 21.9688 15 21.9688C14.7188 21.9688 14.4818 21.8698 14.2891 21.6719C14.0964 21.474 14 21.2396 14 20.9688V16.3672H9.39844C9.1224 16.3672 8.88542 16.2708 8.6875 16.0781C8.48958 15.8802 8.39062 15.6406 8.39062 15.3594Z" fill="#7F7F7F" fill-opacity="0.5" style="mix-blend-mode:luminosity"/>
<path d="M8.39062 15.3594C8.39062 15.0833 8.48958 14.8464 8.6875 14.6484C8.88542 14.4505 9.1224 14.3516 9.39844 14.3516H14V9.75781C14 9.48177 14.0964 9.24479 14.2891 9.04688C14.4818 8.84896 14.7188 8.75 15 8.75C15.276 8.75 15.513 8.84896 15.7109 9.04688C15.9089 9.24479 16.0078 9.48177 16.0078 9.75781V14.3516H20.6094C20.8802 14.3516 21.1146 14.4505 21.3125 14.6484C21.5104 14.8464 21.6094 15.0833 21.6094 15.3594C21.6094 15.6406 21.5104 15.8802 21.3125 16.0781C21.1146 16.2708 20.8802 16.3672 20.6094 16.3672H16.0078V20.9688C16.0078 21.2396 15.9089 21.474 15.7109 21.6719C15.513 21.8698 15.276 21.9688 15 21.9688C14.7188 21.9688 14.4818 21.8698 14.2891 21.6719C14.0964 21.474 14 21.2396 14 20.9688V16.3672H9.39844C9.1224 16.3672 8.88542 16.2708 8.6875 16.0781C8.48958 15.8802 8.39062 15.6406 8.39062 15.3594Z" fill="white" style="mix-blend-mode:overlay"/>
</svg>
